<?xml version="1.0" standalone="no"?>
<!DOCTYPE svg PUBLIC "-//W3C//DTD SVG 20010904//EN"
 "http://www.w3.org/TR/2001/REC-SVG-20010904/DTD/svg10.dtd">
<svg version="1.0" xmlns="http://www.w3.org/2000/svg"
 width="346.000000pt" height="274.000000pt" viewBox="0 0 346.000000 274.000000"
 preserveAspectRatio="xMidYMid meet">
<metadata>
Created by potrace 1.14, written by Peter Selinger 2001-2017
</metadata>
<g transform="translate(0.000000,274.000000) scale(0.100000,-0.100000)"
fill="#000000" stroke="none">
<path d="M953 2638 c-45 -50 -56 -113 -29 -166 20 -38 129 -141 200 -187 80
-53 126 -98 126 -124 0 -12 4 -20 9 -16 5 3 16 -2 25 -10 13 -14 18 -13 45 3
45 27 76 71 62 85 -7 7 -19 12 -29 12 -9 0 -16 7 -16 16 1 11 -5 14 -22 11
-26 -5 -31 7 -12 26 6 6 8 15 3 19 -4 5 -10 2 -12 -4 -4 -10 -10 -10 -26 -1
-12 6 -23 11 -24 10 -11 -7 -22 1 -26 19 -4 14 -11 20 -21 16 -8 -3 -18 -2
-21 3 -4 6 -17 10 -31 10 -51 0 -103 47 -139 125 -19 42 -21 59 -15 105 4 30
6 58 3 63 -8 14 -29 7 -50 -15z"/>
<path d="M396 2535 c-21 -7 -42 -18 -45 -23 -3 -5 -15 -11 -26 -13 -11 -3 -21
-13 -22 -24 -1 -11 -5 -47 -8 -81 -5 -43 -4 -68 6 -85 15 -27 14 -23 24 -66 4
-18 12 -33 18 -33 6 0 7 -3 4 -6 -3 -4 -2 -14 3 -24 5 -9 11 -28 14 -41 17
-82 40 -142 62 -166 14 -16 32 -35 40 -44 8 -9 14 -21 14 -27 0 -16 60 -69 92
-83 16 -6 28 -15 28 -19 0 -5 11 -7 25 -6 14 2 30 -3 36 -10 6 -7 26 -18 45
-24 19 -6 34 -16 34 -21 0 -6 5 -7 11 -3 10 6 79 -60 79 -77 0 -25 -40 -31
-222 -35 -106 -2 -224 -6 -263 -8 -38 -3 -98 0 -132 6 -57 9 -120 3 -195 -18
-17 -5 -18 -52 -18 -805 l0 -799 473 0 474 0 -3 73 c-1 39 -6 106 -11 147 -6
41 -10 86 -11 100 0 14 -5 43 -10 65 -19 75 -31 150 -43 261 -14 134 -15 193
-5 259 l8 50 12 -34 c18 -56 36 -51 37 11 2 85 4 100 18 150 12 43 61 107 61
79 0 -9 7 -8 28 3 39 21 117 56 125 56 4 0 7 -7 7 -15 0 -8 5 -15 10 -15 15 0
82 44 102 66 25 28 66 126 79 185 6 29 24 83 40 119 23 54 27 77 23 116 -3 27
-5 59 -5 71 1 12 -3 24 -7 27 -4 2 -3 37 2 76 7 53 7 76 -2 88 -6 9 -18 32
-26 50 -8 17 -20 32 -26 32 -7 0 -22 8 -35 19 -18 13 -21 21 -12 30 8 8 6 11
-10 11 -11 0 -23 -7 -27 -15 -3 -8 -10 -15 -15 -15 -23 0 -71 -60 -91 -113
-12 -32 -24 -57 -26 -54 -7 7 8 67 17 67 5 0 9 8 9 18 0 20 87 153 98 149 4
-1 8 3 9 8 3 12 -20 11 -120 -9 -44 -8 -85 -12 -93 -9 -8 3 -22 20 -31 37 -8
17 -22 38 -30 48 -8 9 -36 59 -61 111 -41 83 -54 100 -99 131 -29 20 -56 36
-61 36 -4 0 -13 5 -19 11 -7 7 -25 13 -42 14 -17 2 -48 12 -69 23 -27 14 -43
17 -50 10 -7 -7 -17 -6 -32 2 -12 6 -31 10 -41 7 -10 -3 -19 -2 -19 1 0 13
-65 11 -104 -3z"/>
<path d="M2618 2143 c-20 -2 -42 -11 -48 -19 -7 -8 -20 -14 -29 -14 -10 0 -21
-12 -27 -26 -7 -21 -17 -28 -44 -31 -40 -4 -63 -23 -66 -55 -1 -13 -5 -33 -9
-45 -6 -19 -4 -23 13 -23 11 0 36 7 56 15 21 9 91 29 157 45 112 26 159 48
159 73 0 6 -3 7 -7 4 -3 -4 -12 -2 -20 4 -7 6 -13 8 -13 5 0 -4 -7 0 -16 8 -9
9 -13 24 -9 35 4 14 0 20 -17 25 -13 3 -27 5 -33 4 -5 -1 -27 -3 -47 -5z"/>
<path d="M2949 1946 c-3 -3 -22 -7 -42 -10 -36 -4 -120 -46 -132 -66 -3 -5
-50 -34 -105 -65 -104 -58 -117 -60 -150 -20 -20 24 -92 57 -103 46 -5 -5 -5
-29 2 -60 10 -49 5 -141 -8 -141 -4 0 -15 16 -25 35 -22 40 -21 40 -99 18 -49
-13 -63 -22 -83 -55 -16 -24 -32 -38 -45 -38 -24 0 -81 -56 -105 -103 -9 -16
-20 -55 -25 -86 -24 -149 -29 -198 -23 -224 3 -15 1 -34 -6 -42 -9 -10 -8 -21
4 -44 9 -16 16 -37 16 -45 0 -9 16 -20 39 -27 29 -8 41 -19 46 -36 3 -14 16
-39 28 -57 12 -17 23 -33 25 -36 2 -2 7 2 12 9 4 8 15 11 24 8 12 -5 18 4 26
34 6 23 14 39 17 36 2 -3 -3 -31 -12 -62 -34 -119 9 -52 55 85 10 30 26 93 36
140 22 114 28 126 65 145 34 18 116 28 133 17 22 -13 36 -10 36 9 0 19 16 27
22 10 2 -5 10 -11 18 -13 8 -2 20 -10 27 -18 8 -10 12 -11 13 -3 0 7 7 10 15
7 8 -4 15 -1 15 6 0 10 3 10 15 0 8 -7 15 -9 15 -4 0 13 97 9 113 -4 8 -7 33
-9 62 -6 28 4 58 6 68 6 9 -1 17 3 17 8 0 5 8 8 18 8 20 -2 132 60 132 73 0 5
6 9 13 9 6 0 31 17 53 38 62 55 116 102 118 102 10 0 96 86 96 96 0 6 7 15 16
18 10 4 14 14 12 24 -3 10 1 23 8 30 9 8 11 20 5 35 -4 12 -6 28 -4 35 3 6 0
12 -6 12 -6 0 -11 5 -11 12 0 15 -60 68 -78 68 -7 0 -15 6 -18 14 -3 8 -25 19
-50 26 -24 7 -44 17 -44 22 0 5 -5 6 -10 3 -6 -4 -32 -2 -58 4 -58 12 -186 24
-193 17z"/>
<path d="M1238 999 c-16 -6 -44 -36 -68 -70 -42 -61 -51 -109 -31 -162 12 -31
2 -44 -33 -43 -16 1 -34 -4 -41 -11 -7 -6 -26 -15 -41 -19 -16 -4 -38 -16 -48
-27 -19 -20 -19 -20 0 -56 10 -19 30 -41 44 -48 19 -9 27 -25 35 -68 13 -61 8
-78 -12 -43 -10 19 -12 20 -13 5 0 -22 52 -77 74 -77 9 0 16 7 16 15 0 8 4 15
8 15 14 0 42 -35 42 -52 0 -30 12 -48 34 -49 11 0 15 -3 9 -6 -22 -8 -14 -21
31 -52 41 -29 71 -76 40 -64 -26 10 -15 -42 14 -70 15 -14 33 -33 40 -42 10
-12 17 -13 27 -5 10 8 14 4 17 -20 3 -21 0 -34 -11 -40 -14 -9 -14 -9 0 -10
24 0 42 26 34 49 -7 23 19 41 59 41 24 0 24 1 10 30 -9 16 -22 30 -31 30 -13
0 -13 3 -3 15 8 10 30 15 62 15 57 0 88 13 88 38 0 14 2 14 9 3 7 -11 10 -9
15 6 6 18 36 32 81 38 18 2 60 28 72 44 6 9 17 16 25 16 7 0 13 5 13 12 0 6 3
15 8 19 4 4 7 0 7 -9 0 -27 96 -14 121 15 22 27 22 29 10 61 -6 15 -20 26 -39
30 -16 3 -41 9 -56 13 -22 5 -25 3 -20 -11 6 -16 5 -16 -17 -4 -13 7 -28 13
-33 14 -5 0 -11 6 -14 13 -2 7 0 12 5 11 21 -4 34 2 27 12 -3 6 -1 15 6 19 18
11 5 41 -15 34 -8 -3 -15 -2 -15 4 0 6 -11 9 -25 7 -33 -3 -65 40 -71 95 -6
48 1 51 20 8 14 -34 96 -118 96 -99 0 5 16 13 36 17 19 4 38 13 41 20 3 8 10
14 17 14 16 0 21 160 6 205 -10 31 -22 40 -123 88 -66 32 -133 57 -164 62 -29
4 -53 10 -53 14 0 5 -33 9 -72 10 -40 1 -107 3 -148 6 -41 2 -87 -1 -102 -6z
m147 -296 c8 -10 15 -29 15 -42 0 -41 -22 -151 -30 -151 -5 0 -17 12 -29 28
-16 22 -23 25 -38 16 -10 -6 -26 -26 -35 -45 -9 -19 -18 -28 -19 -21 -1 6 -2
16 -3 22 0 5 -7 15 -13 22 -7 6 -13 18 -13 24 0 7 -5 16 -12 20 -6 4 -8 3 -5
-4 10 -15 -1 -39 -18 -39 -20 0 -19 38 0 84 19 44 40 69 80 95 36 23 100 19
120 -9z"/>
<path d="M978 324 c-11 -17 1 -66 20 -80 9 -8 13 -14 7 -14 -5 0 -10 -18 -11
-41 -1 -35 1 -40 17 -36 20 5 26 -7 9 -18 -5 -3 -7 -11 -5 -18 3 -7 -1 -30 -9
-52 -22 -64 -20 -65 130 -65 74 0 134 2 134 5 0 24 -39 81 -94 139 -56 58 -70
67 -91 62 -14 -4 -25 -2 -25 3 0 5 -9 11 -20 14 -12 3 -20 14 -20 26 0 13 -6
21 -16 21 -14 0 -14 3 -4 15 8 9 8 15 2 15 -6 0 -12 8 -14 18 -2 10 -6 13 -10
6z"/>
<path d="M1869 287 c-15 -12 -48 -40 -74 -62 -26 -22 -66 -52 -89 -67 -59 -40
-94 -67 -145 -115 l-46 -42 51 -1 c49 0 52 2 145 85 87 78 198 200 199 218 0
12 -14 7 -41 -16z"/>
</g>
</svg>
